# Blender v2.91.0 OBJ File: ''
# www.blender.org
mtllib cube_hardbytes.mtl
o Cube_Cube.001
v -1.000000 -1.000000 1.000000
v -1.000000 1.000000 1.000000
v -1.000000 1.000000 -1.000000
v -1.000000 -1.000000 -1.000000
v 1.000000 1.000000 -1.000000
v 1.000000 -1.000000 -1.000000
v 1.000000 1.000000 1.000000
v 1.000000 -1.000000 1.000000
vt 2.999470 -0.005510
vt 2.999470 0.996194
vt 1.997767 0.996194
vt 1.997767 -0.005510
vt 0.996063 0.996194
vt 0.996063 -0.005510
vt -0.005641 0.996194
vt -0.005641 -0.005510
vt -1.007345 0.996194
vt -1.007345 -0.005510
vt 0.996063 -1.007214
vt -0.005641 -1.007214
vt 0.996063 1.997898
vt -0.005641 1.997898
vn -1.0000 -0.0000 0.0000
vn 0.0000 0.0000 -1.0000
vn 1.0000 0.0000 0.0000
vn 0.0000 -0.0000 1.0000
vn 0.0000 -1.0000 -0.0000
vn 0.0000 1.0000 0.0000
usemtl Material_Base
s 1
f 1/1/1 2/2/1 3/3/1 4/4/1
f 4/4/2 3/3/2 5/5/2 6/6/2
f 6/6/3 5/5/3 7/7/3 8/8/3
f 8/8/4 7/7/4 2/9/4 1/10/4
f 4/11/5 6/6/5 8/8/5 1/12/5
f 5/5/6 3/13/6 2/14/6 7/7/6
