# Blender v2.92.0 OBJ File: 'character-test.blend'
# www.blender.org
mtllib character-test.mtl
o Cube.001
v 3.000000 2.000000 3.000000
v -3.000000 -0.000000 3.000000
v 3.000000 -0.000000 3.000000
v -3.000000 2.000000 3.000000
v -3.000000 0.000000 -3.000000
v 3.000000 0.000000 -3.000000
v -3.000000 2.000000 -3.000000
v -3.000000 1.000000 -7.000000
v 3.000000 1.000000 -7.000000
v 8.000000 -0.000000 3.000000
v 8.000000 0.000000 -3.000000
v 13.000000 -0.000000 3.000000
v 13.000000 0.000000 -3.000000
v 3.000000 1.000000 -3.000000
v 8.000000 1.000000 -3.000000
v 3.000000 1.000000 -4.000000
v 8.000000 1.000000 -4.000000
v 3.000000 2.000000 -4.000000
v 8.000000 2.000000 -4.000000
v 3.000000 2.000000 -5.000000
v 8.000000 2.000000 -5.000000
v 3.000000 3.000000 -5.000000
v 8.000000 3.000000 -5.000000
v 3.000000 3.000000 -9.000000
v 8.000000 3.000000 -9.000000
v 8.000000 2.000000 -7.000000
v 13.000000 2.000000 -7.000000
v 20.000000 -0.000000 3.000000
v 20.000000 0.000000 -3.000000
v 13.000000 0.500000 -3.000000
v 20.000000 0.500000 -3.000000
v 13.000000 0.500000 -3.500000
v 20.000000 0.500000 -3.500000
v 13.000000 1.000000 -3.500000
v 20.000000 1.000000 -3.500000
v 13.000000 1.000000 -4.000000
v 20.000000 1.000000 -4.000000
v 13.000000 1.500000 -4.000000
v 20.000000 1.500000 -4.000000
v 13.000000 1.500000 -4.500000
v 20.000000 1.500000 -4.500000
v 13.000000 2.000000 -4.500000
v 20.000000 2.000000 -4.500000
v 13.000000 2.000000 -5.000000
v 20.000000 2.000000 -5.000000
v 13.000000 2.500000 -5.000000
v 20.000000 2.500000 -5.000000
v 13.000000 2.500000 -11.000000
v 20.000000 2.500000 -11.000000
v 26.000000 3.000000 3.000000
v 26.000000 3.000000 -3.000000
v 13.000000 3.000000 9.000000
v 20.000000 3.000000 9.000000
v 8.000000 4.000000 9.000000
v 13.000000 4.000000 9.000000
v 3.000000 6.000000 9.000000
v 8.000000 6.000000 9.000000
vt 0.625000 0.750000
vt 0.375000 1.000000
vt 0.375000 0.750000
vt 0.625000 0.000000
vt 0.375000 0.250000
vt 0.375000 0.000000
vt 0.375000 0.500000
vt 0.125000 0.750000
vt 0.125000 0.500000
vt 0.625000 1.000000
vt 0.625000 0.250000
vt 0.375000 0.500000
vt 0.375000 0.750000
vt 0.375000 0.500000
vt 0.375000 0.750000
vt 0.375000 0.500000
vt 0.375000 0.500000
vt 0.375000 0.500000
vt 0.375000 0.500000
vt 0.375000 0.500000
vt 0.375000 0.500000
vt 0.375000 0.500000
vt 0.375000 0.500000
vt 0.375000 0.500000
vt 0.375000 0.500000
vt 0.375000 0.500000
vt 0.375000 0.500000
vt 0.375000 0.500000
vt 0.375000 0.750000
vt 0.375000 0.500000
vt 0.375000 0.500000
vt 0.375000 0.500000
vt 0.375000 0.500000
vt 0.375000 0.500000
vt 0.375000 0.500000
vt 0.375000 0.500000
vt 0.375000 0.500000
vt 0.375000 0.500000
vt 0.375000 0.500000
vt 0.375000 0.500000
vt 0.375000 0.500000
vt 0.375000 0.500000
vt 0.375000 0.500000
vt 0.375000 0.500000
vt 0.375000 0.500000
vt 0.375000 0.500000
vt 0.375000 0.500000
vt 0.375000 0.500000
vt 0.375000 0.500000
vt 0.375000 0.750000
vt 0.375000 0.750000
vt 0.375000 0.750000
vt 0.375000 0.750000
vt 0.125000 0.500000
vt 0.375000 0.500000
vt 0.375000 0.500000
vt 0.375000 0.500000
vt 0.375000 0.500000
vt 0.375000 0.750000
vt 0.375000 0.750000
vt 0.375000 0.750000
vn 0.0000 0.0000 1.0000
vn -1.0000 0.0000 0.0000
vn 0.0000 -0.9225 -0.3859
vn 0.0000 -1.0000 -0.0000
vn 0.0000 -0.9925 -0.1222
vn 0.0000 -0.9675 0.2527
vn 0.0000 -0.9701 -0.2425
vn 0.0000 -0.9419 0.3358
vn 0.0000 -0.8944 -0.4472
vn 0.0000 -0.9657 0.2596
vn 0.0000 -0.7071 -0.7071
vn 0.1564 -0.9752 0.1564
vn 0.2044 -0.8657 -0.4570
vn 0.4472 -0.8944 -0.0000
vn 0.0000 -0.8944 0.4472
vn 0.0000 -0.8321 0.5547
vn 0.0000 -0.7071 0.7071
usemtl Material.001
s 1
f 1/1/1 2/2/1 3/3/1
f 4/4/2 5/5/2 2/6/2
f 6/7/3 2/8/4 5/9/5
f 1/1/1 4/10/1 2/2/1
f 4/4/2 7/11/2 5/5/2
f 6/7/3 3/3/6 2/8/4
f 5/9/5 9/12/7 6/7/3
f 6/7/3 10/13/8 3/3/6
f 11/14/9 12/15/10 10/13/8
f 6/7/3 15/16/11 11/14/9
f 14/17/11 17/18/11 15/16/11
f 16/19/11 19/20/11 17/18/11
f 18/21/11 21/22/11 19/20/11
f 20/23/11 23/24/11 21/22/11
f 22/25/11 25/26/4 23/24/11
f 11/14/9 27/27/9 13/28/9
f 13/28/9 28/29/12 12/15/10
f 13/28/9 31/30/11 29/31/13
f 30/32/11 33/33/11 31/30/11
f 32/34/11 35/35/11 33/33/11
f 34/36/11 37/37/11 35/35/11
f 36/38/11 39/39/11 37/37/11
f 38/40/11 41/41/11 39/39/11
f 40/42/11 43/43/11 41/41/11
f 42/44/11 45/45/11 43/43/11
f 44/46/11 47/47/11 45/45/11
f 46/48/11 49/49/4 47/47/11
f 29/31/13 50/50/14 28/29/12
f 28/29/12 52/51/15 12/15/10
f 12/15/10 54/52/16 10/13/8
f 10/13/8 56/53/17 3/3/6
f 5/9/5 8/54/7 9/12/7
f 6/7/3 11/14/9 10/13/8
f 11/14/9 13/28/9 12/15/10
f 6/7/3 14/17/11 15/16/11
f 14/17/11 16/19/11 17/18/11
f 16/19/11 18/21/11 19/20/11
f 18/21/11 20/23/11 21/22/11
f 20/23/11 22/25/11 23/24/11
f 22/25/11 24/55/4 25/26/4
f 11/14/9 26/56/9 27/27/9
f 13/28/9 29/31/13 28/29/12
f 13/28/9 30/32/11 31/30/11
f 30/32/11 32/34/11 33/33/11
f 32/34/11 34/36/11 35/35/11
f 34/36/11 36/38/11 37/37/11
f 36/38/11 38/40/11 39/39/11
f 38/40/11 40/42/11 41/41/11
f 40/42/11 42/44/11 43/43/11
f 42/44/11 44/46/11 45/45/11
f 44/46/11 46/48/11 47/47/11
f 46/48/11 48/57/4 49/49/4
f 29/31/13 51/58/14 50/50/14
f 28/29/12 53/59/15 52/51/15
f 12/15/10 55/60/16 54/52/16
f 10/13/8 57/61/17 56/53/17
