# Blender v2.92.0 OBJ File: ''
# www.blender.org
mtllib plano3-2.mtl
o Plane
v -6.386937 -0.000000 6.386937
v -6.386937 0.000000 -6.386937
v 6.386937 0.000000 -6.386937
v 6.386937 -0.000000 6.386937
v -6.386937 -1.757337 6.386937
v 6.386937 -1.757337 6.386937
v 6.386937 -1.757336 -6.386937
v -6.386937 -1.757336 -6.386937
v -7.539109 3.296864 0.000000
v 6.386937 3.347992 6.386937
v -6.386937 3.347992 6.386937
v -6.386937 -0.000000 8.246403
v 6.386937 -0.000000 8.246403
v 6.386937 -1.757337 8.246403
v -6.386937 -1.757337 8.246403
v 6.386937 3.347991 8.246403
v -6.386937 3.347991 8.246403
v -8.691280 0.000000 -6.386937
v -8.691280 -0.000000 6.386937
v -8.691280 -1.757337 6.386937
v -8.691280 -1.757336 -6.386937
vt 0.000000 1.000000
vt 1.000000 0.000000
vt 0.000000 0.000000
vt 1.000000 0.000000
vt 0.000000 1.000000
vt 0.000000 0.000000
vt 0.000000 1.000000
vt 0.000000 0.000000
vt 1.000000 1.000000
vt 1.000000 1.000000
vt 1.000000 0.000000
vt 0.000000 0.000000
vt 0.000000 0.000000
vt 1.000000 0.000000
vt 1.000000 0.000000
vt 0.000000 0.000000
vt 1.000000 0.000000
vt 0.000000 0.000000
vt 0.000000 1.000000
vt 0.000000 1.000000
vt 0.000000 0.000000
vt 0.000000 0.000000
vn -0.0974 -0.6166 0.7813
vn -0.9045 -0.3015 0.3015
vn 0.6574 -0.7365 -0.1595
vn -0.7071 0.7071 0.0000
vn 0.0000 0.7071 0.7071
vn 0.3015 0.9045 -0.3015
vn 0.6423 -0.7577 0.1159
vn 0.5774 -0.5774 0.5774
vn -0.5774 -0.5774 0.5774
vn -0.5774 0.5774 0.5774
vn -0.7071 0.0000 -0.7071
vn 0.5774 0.5774 -0.5774
vn 0.7071 0.0000 -0.7071
vn -0.5774 0.5774 -0.5774
vn 0.5774 -0.5774 -0.5774
vn -0.5774 -0.5774 -0.5774
vn 0.6129 -0.4259 -0.6655
vn 0.5774 0.5774 0.5774
vn 0.6129 -0.4259 0.6655
usemtl Material.001
s 1
f 2/1/1 4/2/2 1/3/3
f 6/4/4 8/5/5 5/6/6
f 2/1/1 1/3/3 9/7/7
f 4/2/2 11/8/8 1/3/3
f 3/9/9 6/4/4 4/2/2
f 2/1/1 7/10/10 3/9/9
f 13/11/11 15/12/12 12/13/13
f 6/4/4 13/11/11 4/2/2
f 1/3/3 15/12/12 5/6/6
f 5/6/6 14/14/14 6/4/4
f 10/15/9 17/16/15 11/8/8
f 12/13/13 16/17/16 13/11/11
f 1/3/3 17/16/15 12/13/13
f 13/11/11 10/15/9 4/2/2
f 19/18/17 21/19/18 18/20/19
f 5/6/6 19/18/17 1/3/3
f 2/1/1 21/19/18 8/5/5
f 8/5/5 20/21/12 5/6/6
f 1/3/3 19/18/17 9/22/7
f 19/18/17 18/20/19 9/22/7
f 18/20/19 2/1/1 9/7/7
f 2/1/1 3/9/9 4/2/2
f 6/4/4 7/10/10 8/5/5
f 4/2/2 10/15/9 11/8/8
f 3/9/9 7/10/10 6/4/4
f 2/1/1 8/5/5 7/10/10
f 13/11/11 14/14/14 15/12/12
f 6/4/4 14/14/14 13/11/11
f 1/3/3 12/13/13 15/12/12
f 5/6/6 15/12/12 14/14/14
f 10/15/9 16/17/16 17/16/15
f 12/13/13 17/16/15 16/17/16
f 1/3/3 11/8/8 17/16/15
f 13/11/11 16/17/16 10/15/9
f 19/18/17 20/21/12 21/19/18
f 5/6/6 20/21/12 19/18/17
f 2/1/1 18/20/19 21/19/18
f 8/5/5 21/19/18 20/21/12
