# Blender v2.91.0 OBJ File: 'ammopad.blend'
# www.blender.org
mtllib AmmoMachinePad.mtl
o Pad_Cylinder
v -0.044351 0.000001 -2.410719
v 0.000000 0.343824 -1.793420
v 1.553146 0.343823 -0.896710
v 2.107544 0.000000 -1.168322
v 2.107544 -0.000000 0.695275
v 1.553146 0.057689 0.448355
v 1.553146 0.343823 0.896710
v 2.107544 -0.000000 1.316472
v 0.000000 0.343822 1.793420
v -0.044351 -0.000001 2.558869
v -1.553146 0.343823 0.896710
v -2.196245 -0.000000 1.316472
v -2.156426 0.000000 -0.547122
v -1.524407 0.343823 -0.448355
v -1.553146 0.343823 -0.896710
v -2.196245 0.000000 -1.168322
v 2.107544 0.000000 -0.547122
v 2.440444 -0.000000 0.074075
v -2.156426 -0.000000 0.695275
v -2.529145 -0.000000 0.074075
v 0.000000 0.343824 -1.793420
v -0.044351 0.000001 -2.410719
v 2.107544 0.000000 -1.168322
v 1.553146 0.343823 -0.896710
v 1.553146 0.057690 -0.448355
v 1.793420 0.057689 0.000000
v -1.524407 0.343823 0.448355
v -1.793420 0.343823 0.000000
v 1.553146 0.463371 0.896710
v 0.000000 0.463370 1.793420
v -1.553146 0.463371 0.896710
v -1.524407 0.463371 0.448355
v 0.000000 0.463371 -1.793420
v 1.553146 0.463371 -0.896710
v 1.793420 0.463371 0.000000
v 1.553146 0.463371 0.448355
v 1.553146 0.463371 -0.448355
v -1.553146 0.463371 -0.896710
v -1.793420 0.463371 0.000000
v -1.524407 0.463371 -0.448355
v -1.402433 0.463371 -0.816013
v 0.000000 0.463371 -1.625708
v 0.000000 0.463371 -1.625708
v -1.402433 0.463371 -0.816013
v 1.407905 0.463371 -0.812853
v 1.407905 0.463371 -0.411889
v 1.407905 0.463371 -0.411889
v 1.407905 0.463371 -0.812853
v 1.407905 0.463371 0.812854
v 0.000000 0.463370 1.625709
v 0.000000 0.463370 1.625709
v 1.407905 0.463371 0.812854
v -1.402433 0.463371 0.816011
v -1.402433 0.463371 0.816011
v -1.376565 0.463371 0.412458
v -1.376565 0.463371 0.412458
v 1.628635 0.463371 0.000000
v 1.407905 0.463371 0.411891
v 1.407905 0.463371 0.411891
v 1.628635 0.463371 0.000000
v -1.624039 0.463371 0.000000
v -1.376565 0.463371 -0.412457
v -1.376565 0.463371 -0.412457
v -1.624039 0.463371 0.000000
v -1.376565 0.418276 0.412458
v -1.624039 0.418276 0.000000
v -1.402433 0.418276 -0.816013
v 0.000000 0.418277 -1.625708
v 1.407905 0.418276 -0.411889
v 1.628635 0.418276 0.000000
v -1.402433 0.418276 0.816011
v -1.376565 0.418276 -0.412457
v 1.407905 0.418276 -0.812853
v 1.407905 0.418276 0.411891
v 1.407905 0.418276 0.812854
v 0.000000 0.418275 1.625709
vt 0.648122 0.141487
vt 0.687835 0.158510
vt 0.687835 0.228330
vt 0.648122 0.238223
vt 0.669536 0.485837
vt 0.670848 0.509818
vt 0.636058 0.509818
vt 0.662030 0.470812
vt 0.937074 0.271938
vt 0.974890 0.275631
vt 0.974890 0.344598
vt 0.937074 0.367492
vt 0.169680 0.958230
vt 0.131864 0.931555
vt 0.131864 0.872389
vt 0.169680 0.876254
vt 0.739399 0.194139
vt 0.740317 0.153647
vt 0.755654 0.159944
vt 0.760649 0.202864
vt 0.551981 0.242280
vt 0.511959 0.229725
vt 0.511959 0.159915
vt 0.551981 0.145558
vt 0.000000 0.148535
vt 0.000000 0.049512
vt 0.021445 0.037134
vt 0.036255 0.013267
vt 0.064335 0.012378
vt 0.085780 0.000000
vt 0.171561 0.049512
vt 0.171561 0.148535
vt 0.149322 0.159539
vt 0.135306 0.184780
vt 0.106432 0.184295
vt 0.085780 0.198047
vt 0.000000 0.000000
vt 0.000000 0.000000
vt 0.000000 0.000000
vt 0.000000 0.000000
vt 0.000000 0.000000
vt 0.000000 0.000000
vt 0.000000 0.000000
vt 0.000000 0.000000
vt 0.613768 0.470812
vt 0.636058 0.474754
vt 0.626485 0.492622
vt 0.600504 0.495569
vt 0.787939 0.141487
vt 0.787939 0.185868
vt 0.760649 0.165710
vt 0.772969 0.150690
vt 0.636058 0.510489
vt 0.613768 0.520324
vt 0.169680 0.854673
vt 0.131864 0.856813
vt 0.131864 0.836057
vt 0.169680 0.825917
vt 0.713439 0.141487
vt 0.708078 0.187179
vt 0.689598 0.194788
vt 0.687835 0.152029
vt 0.988038 0.275631
vt 0.988038 0.344598
vt 0.118716 0.931555
vt 0.118716 0.872389
vt 0.118716 0.856813
vt 0.124792 0.753083
vt 0.124792 0.683263
vt 0.137871 0.682975
vt 0.137871 0.752795
vt 0.988038 0.243524
vt 0.988038 0.262950
vt 0.943419 0.262950
vt 0.943419 0.243524
vt 0.818306 0.169954
vt 0.837430 0.169278
vt 0.837430 0.213660
vt 0.818306 0.214336
vt 0.805236 0.239089
vt 0.805236 0.169278
vt 0.818306 0.169587
vt 0.818306 0.239398
vt 0.683532 0.515419
vt 0.670848 0.515419
vt 0.670848 0.470812
vt 0.683532 0.502274
vt 0.713439 0.199099
vt 0.694959 0.206707
vt 0.118716 0.836057
vt 0.745312 0.141487
vt 0.760649 0.147784
vt 0.000000 0.000000
vt 0.000000 0.000000
vt 0.000000 0.000000
vt 0.000000 0.000000
vt 0.000000 0.000000
vt 0.000000 0.000000
vt 0.000000 0.000000
vt 0.000000 0.000000
vt 0.000000 0.000000
vt 0.000000 0.000000
vt 0.000000 0.000000
vt 0.000000 0.000000
vt 0.000000 0.000000
vt 0.000000 0.000000
vt 0.000000 0.000000
vt 0.000000 0.000000
vt 0.000000 0.000000
vt 0.000000 0.000000
vt 0.000000 0.000000
vt 0.000000 0.000000
vt 0.000000 0.000000
vt 0.000000 0.000000
vt 0.000000 0.000000
vt 0.000000 0.000000
vt 0.641018 0.528193
vt 0.641018 0.509818
vt 0.645950 0.509966
vt 0.645950 0.528341
vt 0.931285 0.347072
vt 0.931285 0.282562
vt 0.937074 0.279219
vt 0.937074 0.350662
vt 0.875168 0.250205
vt 0.861328 0.258197
vt 0.859692 0.252461
vt 0.875169 0.243524
vt 0.819052 0.282609
vt 0.819052 0.347371
vt 0.813263 0.350714
vt 0.813263 0.279271
vt 0.874950 0.379603
vt 0.875169 0.386409
vt 0.888365 0.370666
vt 0.890072 0.376481
vt 0.842711 0.258794
vt 0.832892 0.274617
vt 0.828739 0.270334
vt 0.839427 0.253110
vt 0.907534 0.370981
vt 0.916839 0.354224
vt 0.921025 0.358607
vt 0.910910 0.376823
vt 0.847324 0.169278
vt 0.847324 0.231553
vt 0.842364 0.231553
vt 0.842364 0.169278
vt 0.161728 0.709803
vt 0.161728 0.691195
vt 0.166688 0.691195
vt 0.166688 0.709803
vt 0.551981 0.241619
vt 0.551981 0.229480
vt 0.556941 0.229480
vt 0.556941 0.241619
vt 0.570027 0.227771
vt 0.570027 0.239432
vt 0.565115 0.238957
vt 0.565115 0.227297
vt 0.161728 0.676818
vt 0.166688 0.676818
vt 0.565115 0.227297
vt 0.565115 0.241674
vt 0.560155 0.241674
vt 0.560155 0.227297
vt 0.161728 0.623185
vt 0.166688 0.623185
vt 0.135787 0.753200
vt 0.135787 0.816482
vt 0.130857 0.816365
vt 0.130857 0.753083
vt 0.641018 0.509818
vt 0.641018 0.528431
vt 0.636058 0.528431
vt 0.636058 0.509818
vt 0.645950 0.527585
vt 0.645950 0.510004
vt 0.650878 0.509818
vt 0.650878 0.527400
vt 0.842364 0.169278
vt 0.842364 0.232323
vt 0.837430 0.232432
vt 0.837430 0.169387
vt 0.825534 0.846193
vt 0.881649 0.813837
vt 0.895489 0.821830
vt 0.914105 0.822427
vt 0.923923 0.838251
vt 0.937764 0.846244
vt 0.937764 0.911008
vt 0.881867 0.943238
vt 0.868453 0.934302
vt 0.849284 0.934615
vt 0.839979 0.917858
vt 0.825534 0.910705
vn 0.2786 0.8304 -0.4825
vn 0.4509 0.8622 -0.2307
vn 0.2364 0.8811 0.4095
vn -0.2243 0.8938 0.3885
vn -0.4814 0.8760 0.0309
vn -0.2627 0.8508 -0.4550
vn 0.0000 -1.0000 -0.0000
vn 0.0000 0.0000 1.0000
vn 0.0944 0.9942 -0.0506
vn 0.3998 0.8855 0.2369
vn 0.0836 0.9955 0.0448
vn -0.3920 0.8894 0.2352
vn -0.4870 0.8728 -0.0312
vn -0.4302 0.8650 -0.2581
vn -0.8125 0.0923 -0.5756
vn -0.9471 -0.0876 -0.3086
vn -0.8816 -0.0000 0.4720
vn -0.9718 0.0000 0.2360
vn 0.0000 0.0000 -1.0000
vn -0.9047 0.0923 0.4158
vn -0.8767 -0.1405 0.4601
vn 1.0000 0.0000 0.0000
vn -0.7589 0.3486 -0.5501
vn -0.9713 -0.1625 0.1739
vn -0.9286 0.3489 -0.1261
vn -0.7511 -0.3876 0.5344
vn -0.5000 0.0000 -0.8660
vn -1.0000 0.0000 -0.0000
vn -0.9718 0.0000 -0.2360
vn -0.9980 0.0000 0.0640
vn 0.0000 0.0000 0.0000
vn 0.8575 -0.0000 -0.5145
vn 0.0000 1.0000 0.0000
vn 0.5000 0.0000 0.8660
vn -0.8814 0.0000 0.4723
vn 0.9980 0.0000 0.0640
vn 0.9980 0.0000 -0.0640
vn -0.5000 0.0000 0.8660
vn 0.8575 0.0000 0.5145
vn -0.8814 -0.0000 -0.4723
vn 0.5000 0.0000 -0.8660
usemtl Base
s 1
f 1/1/1 2/2/1 3/3/1 4/4/1
f 5/5/2 6/6/2 7/7/2 8/8/2
f 8/9/3 7/10/3 9/11/3 10/12/3
f 10/13/4 9/14/4 11/15/4 12/16/4
f 13/17/5 14/18/5 15/19/5 16/20/5
f 16/21/6 15/22/6 2/23/6 1/24/6
f 1/25/7 4/26/7 17/27/7 18/28/7 5/29/7 8/30/7 10/31/7 12/32/7 19/33/7 20/34/7 13/35/7 16/36/7
f 1/37/8 2/38/8 21/39/8 22/40/8
f 4/41/8 1/37/8 22/40/8 23/42/8
f 3/43/8 4/41/8 23/42/8 24/44/8
f 2/38/8 3/43/8 24/44/8 21/39/8
f 17/45/9 25/46/9 26/47/9 18/48/9
f 4/49/10 3/50/10 25/51/10 17/52/10
f 18/48/11 26/47/11 6/53/11 5/54/11
f 19/55/12 27/56/12 28/57/12 20/58/12
f 12/16/13 11/15/13 27/56/13 19/55/13
f 20/59/14 28/60/14 14/61/14 13/62/14
f 29/63/15 30/64/8 9/11/8 7/10/16
f 30/65/8 31/66/17 11/15/17 9/14/8
f 31/66/17 32/67/18 27/56/18 11/15/17
f 33/68/19 34/69/20 24/70/21 21/71/19
f 35/72/22 36/73/23 6/74/24 26/75/22
f 37/76/25 35/77/22 26/78/22 25/79/26
f 36/73/23 29/63/15 7/10/16 6/74/24
f 38/80/27 33/81/19 21/82/19 15/83/27
f 34/84/20 37/85/25 25/86/26 24/87/21
f 39/88/28 40/89/29 14/61/29 28/60/28
f 32/67/18 39/90/28 28/57/28 27/56/18
f 40/91/29 38/92/30 15/19/30 14/18/29
f 41/93/8 42/94/8 43/95/8 44/96/8
f 45/97/31 46/98/31 47/99/31 48/100/31
f 49/101/31 50/102/8 51/103/8 52/104/31
f 50/102/8 53/105/8 54/106/8 51/103/8
f 53/105/8 55/107/8 56/108/8 54/106/8
f 42/94/8 45/97/31 48/100/31 43/95/8
f 57/109/8 58/110/31 59/111/31 60/112/8
f 46/98/31 57/109/8 60/112/8 47/99/31
f 58/110/31 49/101/31 52/104/31 59/111/31
f 61/113/8 62/114/8 63/115/8 64/116/8
f 55/107/8 61/113/8 64/116/8 56/108/8
f 62/114/8 41/93/8 44/96/8 63/115/8
usemtl BordePad
f 61/117/32 55/118/32 65/119/32 66/120/32
f 44/121/33 43/122/33 33/123/33 38/124/33
f 48/125/33 47/126/33 37/127/33 34/128/33
f 52/129/33 51/130/33 30/131/33 29/132/33
f 51/130/33 54/133/33 31/134/33 30/131/33
f 54/133/33 56/135/33 32/136/33 31/134/33
f 43/122/33 48/125/33 34/128/33 33/123/33
f 60/137/33 59/138/33 36/139/33 35/140/33
f 47/126/33 60/137/33 35/140/33 37/127/33
f 59/138/33 52/129/33 29/132/33 36/139/33
f 64/141/33 63/142/33 40/143/33 39/144/33
f 56/135/33 64/141/33 39/144/33 32/136/33
f 63/142/33 44/121/33 38/124/33 40/143/33
f 42/145/34 41/146/34 67/147/34 68/148/34
f 57/149/35 46/150/35 69/151/35 70/152/35
f 55/153/36 53/154/36 71/155/36 65/156/36
f 41/157/37 62/158/37 72/159/37 67/160/37
f 46/150/28 45/161/28 73/162/28 69/151/28
f 49/163/28 58/164/28 74/165/28 75/166/28
f 45/161/38 42/167/38 68/168/38 73/162/38
f 50/169/27 49/170/27 75/171/27 76/172/27
f 62/173/39 61/174/39 66/175/39 72/176/39
f 58/177/40 57/178/40 70/179/40 74/180/40
f 53/181/41 50/182/41 76/183/41 71/184/41
usemtl Pad
f 76/185/33 75/186/33 74/187/33 70/188/33 69/189/33 73/190/33 68/191/33 67/192/33 72/193/33 66/194/33 65/195/33 71/196/33
