# Blender v2.91.0 OBJ File: ''
# www.blender.org
mtllib healkit.mtl
o Cube.003
v -0.596049 -0.525000 -0.175000
v -0.455000 -0.525000 -0.175000
v -0.455000 -0.525000 0.175000
v -0.596049 -0.525000 0.175000
v 0.700000 0.421049 0.175000
v 0.692087 0.460830 0.175000
v 0.669554 0.494553 0.175000
v 0.635830 0.517087 0.175000
v 0.596049 0.525000 0.175000
v 0.455000 0.525000 0.175000
v 0.455000 -0.525000 0.175000
v 0.596049 -0.525000 0.175000
v 0.635830 -0.517087 0.175000
v 0.669554 -0.494554 0.175000
v 0.692087 -0.460830 0.175000
v 0.700000 -0.421049 0.175000
v -0.455000 0.525000 0.175000
v -0.596049 0.525000 0.175000
v -0.635830 0.517087 0.175000
v -0.669554 0.494553 0.175000
v -0.692087 0.460830 0.175000
v -0.700000 0.421049 0.175000
v -0.700000 -0.421049 0.175000
v -0.692087 -0.460830 0.175000
v -0.669554 -0.494554 0.175000
v -0.635830 -0.517087 0.175000
v 0.455000 0.525000 -0.175000
v 0.596049 0.525000 -0.175000
v 0.635830 0.517087 -0.175000
v 0.669554 0.494554 -0.175000
v 0.692087 0.460830 -0.175000
v 0.700000 0.421049 -0.175000
v 0.700000 -0.421049 -0.175000
v 0.692087 -0.460830 -0.175000
v 0.669554 -0.494553 -0.175000
v 0.635830 -0.517087 -0.175000
v 0.596049 -0.525000 -0.175000
v 0.455000 -0.525000 -0.175000
v 0.315000 -0.525000 -0.175000
v 0.315000 -0.525000 0.175000
v -0.315000 -0.525000 0.175000
v -0.315000 -0.525000 -0.175000
v -0.700000 0.421049 -0.175000
v -0.692087 0.460830 -0.175000
v -0.669554 0.494554 -0.175000
v -0.635830 0.517087 -0.175000
v -0.596049 0.525000 -0.175000
v -0.455000 0.525000 -0.175000
v -0.635830 -0.517087 -0.175000
v -0.669554 -0.494553 -0.175000
v -0.692087 -0.460830 -0.175000
v -0.700000 -0.421049 -0.175000
v -0.315000 0.525000 0.175000
v 0.315000 0.525000 0.175000
v 0.315000 0.525000 -0.175000
v -0.315000 0.525000 -0.175000
v 0.070000 -0.245000 0.136500
v -0.070000 -0.245000 0.136500
v -0.070000 -0.070000 0.136500
v -0.245000 -0.070000 0.136500
v -0.245000 0.070000 0.136500
v -0.070000 0.070000 0.136500
v -0.070000 0.245000 0.136500
v 0.070000 0.245000 0.136500
v 0.070000 0.070000 0.136500
v 0.245000 0.070000 0.136500
v 0.245000 -0.070000 0.136500
v 0.070000 -0.070000 0.136500
v -0.070000 -0.245000 -0.139554
v 0.070000 -0.245000 -0.139554
v 0.070000 -0.070000 -0.139554
v 0.245000 -0.070000 -0.139554
v 0.245000 0.070000 -0.139554
v 0.070000 0.070000 -0.139554
v 0.070000 0.245000 -0.139554
v -0.070000 0.245000 -0.139554
v -0.070000 0.070000 -0.139554
v -0.245000 0.070000 -0.139554
v -0.245000 -0.070000 -0.139554
v -0.070000 -0.070000 -0.139554
v -0.245000 -0.070000 0.182000
v -0.070000 -0.070000 0.182000
v -0.070000 0.070000 0.182000
v -0.245000 0.070000 0.182000
v 0.070000 0.245000 0.182000
v 0.070000 0.070000 0.182000
v 0.070000 -0.245000 0.182000
v -0.070000 -0.245000 0.182000
v 0.245000 0.070000 0.182000
v -0.070000 0.245000 0.182000
v 0.070000 -0.070000 0.182000
v 0.245000 -0.070000 0.182000
v -0.070000 0.070000 -0.182000
v -0.070000 0.245000 -0.182000
v 0.070000 0.245000 -0.182000
v 0.070000 0.070000 -0.182000
v 0.070000 -0.245000 -0.182000
v 0.070000 -0.070000 -0.182000
v 0.245000 -0.070000 -0.182000
v -0.245000 -0.070000 -0.182000
v -0.070000 -0.070000 -0.182000
v -0.070000 -0.245000 -0.182000
v -0.245000 0.070000 -0.182000
v 0.245000 0.070000 -0.182000
vt 0.148693 0.500000
vt 0.180842 0.500000
vt 0.180842 0.750000
vt 0.148693 0.750000
vt 0.600250 0.750000
vt 0.609721 0.750425
vt 0.622584 0.751634
vt 0.631262 0.753445
vt 0.625000 0.766741
vt 0.625000 0.789457
vt 0.375000 0.789457
vt 0.375000 0.766741
vt 0.368738 0.753445
vt 0.377416 0.751634
vt 0.390279 0.750425
vt 0.399750 0.750000
vt 0.625000 0.944158
vt 0.625000 0.976307
vt 0.623116 0.985374
vt 0.617751 0.993060
vt 0.609721 0.998196
vt 0.600250 1.000000
vt 0.399750 1.000000
vt 0.390279 0.998196
vt 0.382249 0.993060
vt 0.376884 0.985374
vt 0.375000 0.976307
vt 0.375000 0.944158
vt 0.625000 0.460543
vt 0.625000 0.483259
vt 0.631262 0.496555
vt 0.622584 0.498366
vt 0.609721 0.499575
vt 0.600250 0.500000
vt 0.399750 0.500000
vt 0.390279 0.499575
vt 0.377416 0.498366
vt 0.368738 0.496555
vt 0.375000 0.483259
vt 0.375000 0.460543
vt 0.302525 0.500000
vt 0.302525 0.750000
vt 0.203356 0.750000
vt 0.203356 0.500000
vt 0.600250 0.250000
vt 0.609721 0.251804
vt 0.617751 0.256940
vt 0.623116 0.264626
vt 0.625000 0.273693
vt 0.625000 0.305842
vt 0.375000 0.305842
vt 0.375000 0.273693
vt 0.376884 0.264626
vt 0.382249 0.256940
vt 0.390279 0.251804
vt 0.399750 0.250000
vt 0.819158 0.500000
vt 0.851307 0.500000
vt 0.851307 0.750000
vt 0.819158 0.750000
vt 0.641741 0.500000
vt 0.664457 0.500000
vt 0.664457 0.750000
vt 0.641741 0.750000
vt 0.335543 0.500000
vt 0.358259 0.500000
vt 0.358259 0.750000
vt 0.335543 0.750000
vt 0.600250 0.000000
vt 0.399750 0.000000
vt 0.139626 0.750000
vt 0.139626 0.500000
vt 0.125000 0.750000
vt 0.125000 0.500000
vt 0.375000 0.250000
vt 0.375000 0.000000
vt 0.390279 0.000000
vt 0.390279 0.250000
vt 0.860374 0.500000
vt 0.860374 0.750000
vt 0.875000 0.500000
vt 0.875000 0.750000
vt 0.625000 0.000000
vt 0.625000 0.250000
vt 0.609721 0.250000
vt 0.609721 0.000000
vt 0.796644 0.750000
vt 0.697475 0.750000
vt 0.697475 0.500000
vt 0.796644 0.500000
vt 0.375000 0.427525
vt 0.375000 0.328356
vt 0.625000 0.427525
vt 0.375000 0.822475
vt 0.625000 0.822475
vt 0.375000 0.921644
vt 0.456077 0.852888
vt 0.456077 0.886004
vt 0.492034 0.886004
vt 0.492034 0.911885
vt 0.524611 0.911885
vt 0.524611 0.886004
vt 0.555138 0.886004
vt 0.555138 0.852888
vt 0.524611 0.852888
vt 0.524611 0.831356
vt 0.492034 0.831356
vt 0.492034 0.852888
vt 0.456077 0.363996
vt 0.456077 0.397112
vt 0.492034 0.397112
vt 0.492034 0.418644
vt 0.524611 0.418644
vt 0.524611 0.397112
vt 0.555138 0.397112
vt 0.555138 0.363996
vt 0.524611 0.363996
vt 0.524611 0.338115
vt 0.492034 0.338115
vt 0.492034 0.363996
vt 0.492034 0.911885
vt 0.492034 0.886004
vt 0.524611 0.886004
vt 0.524611 0.911885
vt 0.555138 0.852888
vt 0.524611 0.852888
vt 0.456077 0.852888
vt 0.456077 0.886004
vt 0.524611 0.831356
vt 0.555138 0.886004
vt 0.492034 0.852888
vt 0.492034 0.831356
vt 0.524611 0.363996
vt 0.555138 0.363996
vt 0.555138 0.397112
vt 0.524611 0.397112
vt 0.456077 0.397112
vt 0.492034 0.397112
vt 0.492034 0.418644
vt 0.492034 0.338115
vt 0.492034 0.363996
vt 0.456077 0.363996
vt 0.524611 0.338115
vt 0.524611 0.418644
vt 0.625000 0.921644
vt 0.625000 0.328356
vn 0.0000 -1.0000 0.0000
vn -0.0000 -0.0000 1.0000
vn 0.0000 0.0000 -1.0000
vn 0.0000 1.0000 0.0000
vn -1.0000 0.0000 0.0000
vn -0.1951 -0.9808 0.0000
vn -0.5556 -0.8315 0.0000
vn -0.8315 -0.5556 -0.0000
vn -0.9808 -0.1951 -0.0000
vn 0.1951 0.9808 0.0000
vn 0.5556 0.8315 0.0000
vn 0.8315 0.5556 0.0000
vn 0.9808 0.1951 0.0000
vn 0.1951 -0.9808 0.0000
vn 0.5556 -0.8315 0.0000
vn 0.8315 -0.5556 -0.0000
vn 0.9808 -0.1951 -0.0000
vn -0.1951 0.9808 0.0000
vn -0.5556 0.8315 0.0000
vn -0.8315 0.5556 0.0000
vn -0.9808 0.1951 0.0000
vn 1.0000 0.0000 0.0000
usemtl cruz
s 1
f 1/1/1 2/2/1 3/3/1 4/4/1
f 5/5/2 6/6/2 7/7/2 8/8/2 9/9/2 10/10/2 11/11/2 12/12/2 13/13/2 14/14/2 15/15/2 16/16/2
f 17/17/2 18/18/2 19/19/2 20/20/2 21/21/2 22/22/2 23/23/2 24/24/2 25/25/2 26/26/2 4/27/2 3/28/2
f 27/29/3 28/30/3 29/31/3 30/32/3 31/33/3 32/34/3 33/35/3 34/36/3 35/37/3 36/38/3 37/39/3 38/40/3
f 39/41/1 40/42/1 41/43/1 42/44/1
f 43/45/3 44/46/3 45/47/3 46/48/3 47/49/3 48/50/3 2/51/3 1/52/3 49/53/3 50/54/3 51/55/3 52/56/3
f 48/57/4 47/58/4 18/59/4 17/60/4
f 28/61/4 27/62/4 10/63/4 9/64/4
f 38/65/1 37/66/1 12/67/1 11/68/1
f 22/69/5 43/45/5 52/56/5 23/70/5
f 1/1/6 4/4/6 26/71/6 49/72/6
f 49/72/7 26/71/7 25/73/7 50/74/7
f 50/75/8 25/76/8 24/77/8 51/78/8
f 51/78/9 24/77/9 23/70/9 52/56/9
f 28/61/10 9/64/10 8/8/10 29/31/10
f 29/31/11 8/8/11 7/7/11 30/32/11
f 30/32/12 7/7/12 6/6/12 31/33/12
f 31/33/13 6/6/13 5/5/13 32/34/13
f 12/67/14 37/66/14 36/38/14 13/13/14
f 13/13/15 36/38/15 35/37/15 14/14/15
f 14/14/16 35/37/16 34/36/16 15/15/16
f 15/15/17 34/36/17 33/35/17 16/16/17
f 18/59/18 47/58/18 46/79/18 19/80/18
f 19/80/19 46/79/19 45/81/19 20/82/19
f 20/83/20 45/84/20 44/85/20 21/86/20
f 21/86/21 44/85/21 43/45/21 22/69/21
f 32/34/22 5/5/22 16/16/22 33/35/22
f 53/87/4 54/88/4 55/89/4 56/90/4
f 39/91/3 42/92/3 56/90/3 55/93/3
f 40/94/2 54/95/2 53/87/2 41/96/2
usemtl Material.003
f 57/97/3 58/98/3 59/99/3 60/100/3 61/101/3 62/102/3 63/103/3 64/104/3 65/105/3 66/106/3 67/107/3 68/108/3
f 69/109/2 70/110/2 71/111/2 72/112/2 73/113/2 74/114/2 75/115/2 76/116/2 77/117/2 78/118/2 79/119/2 80/120/2
f 81/121/2 82/122/2 83/123/2 84/124/2
f 65/105/22 64/104/22 85/125/22 86/126/22
f 58/98/1 57/97/1 87/127/1 88/128/1
f 66/106/4 65/105/4 86/126/4 89/129/4
f 59/99/5 58/98/5 88/128/5 82/122/5
f 62/102/4 61/101/4 84/124/4 83/123/4
f 64/104/4 63/103/4 90/130/4 85/125/4
f 57/97/22 68/108/22 91/131/22 87/127/22
f 63/103/5 62/102/5 83/123/5 90/130/5
f 68/108/1 67/107/1 92/132/1 91/131/1
f 60/100/1 59/99/1 82/122/1 81/121/1
f 61/101/5 60/100/5 81/121/5 84/124/5
f 67/107/22 66/106/22 89/129/22 92/132/22
f 93/133/3 94/134/3 95/135/3 96/136/3
f 71/111/22 70/110/22 97/137/22 98/138/22
f 72/112/1 71/111/1 98/138/1 99/139/1
f 80/120/1 79/119/1 100/140/1 101/141/1
f 69/109/5 80/120/5 101/141/5 102/142/5
f 79/119/5 78/118/5 103/143/5 100/140/5
f 74/114/4 73/113/4 104/144/4 96/136/4
f 77/117/5 76/116/5 94/134/5 93/133/5
f 76/116/4 75/115/4 95/135/4 94/134/4
f 70/110/1 69/109/1 102/142/1 97/137/1
f 73/113/22 72/112/22 99/139/22 104/144/22
f 75/115/22 74/114/22 96/136/22 95/135/22
f 78/118/4 77/117/4 93/133/4 103/143/4
f 86/126/2 85/125/2 90/130/2 83/123/2
f 89/129/2 86/126/2 91/131/2 92/132/2
f 87/127/2 91/131/2 82/122/2 88/128/2
f 83/123/2 82/122/2 91/131/2 86/126/2
f 103/143/3 93/133/3 101/141/3 100/140/3
f 99/139/3 98/138/3 96/136/3 104/144/3
f 102/142/3 101/141/3 98/138/3 97/137/3
f 96/136/3 98/138/3 101/141/3 93/133/3
usemtl Material.004
f 2/2/1 42/44/1 41/43/1 3/3/1
f 56/90/4 48/57/4 17/60/4 53/87/4
f 27/62/4 55/89/4 54/88/4 10/63/4
f 39/41/1 38/65/1 11/68/1 40/42/1
f 55/93/3 27/29/3 38/40/3 39/91/3
f 10/10/2 54/95/2 40/94/2 11/11/2
f 53/145/2 17/17/2 3/28/2 41/96/2
f 48/50/3 56/146/3 42/92/3 2/51/3
